name C:\Users\u0101727\Documents\MyRepositories\upper-imu-dc\Results\main_tracking\Case_46\FLX02_angularVelocities_bodyFrame.mot
datacolumns 4
datarows 105
range 0.51000000 1.55000000
endheader 
time	radius_imu_x	radius_imu_y	radius_imu_z	
          0.51000000	          0.17722428	         -2.42073127	         -0.30645856	
          0.52000000	          0.17938870	         -2.41865744	         -0.31195140	
          0.53000000	          0.18258497	         -2.41530600	         -0.31609321	
          0.54000000	          0.18665804	         -2.41136700	         -0.32004194	
          0.55000000	          0.19129280	         -2.40749758	         -0.32402067	
          0.56000000	          0.19621141	         -2.40431162	         -0.32803927	
          0.57000000	          0.20124249	         -2.40229428	         -0.33203132	
          0.58000000	          0.20636475	         -2.40180073	         -0.33589565	
          0.59000000	          0.21180201	         -2.40281519	         -0.33951619	
          0.60000000	          0.21813342	         -2.40571942	         -0.34274790	
          0.61000000	          0.22624579	         -2.40823056	         -0.34554667	
          0.62000000	          0.23690863	         -2.41656222	         -0.34743369	
          0.63000000	          0.25094774	         -2.41105979	         -0.34632210	
          0.64000000	          0.24683254	         -2.41803168	         -0.35013452	
          0.65000000	          0.21512101	         -2.44786762	         -0.35106817	
          0.66000000	          0.17704247	         -2.46983405	         -0.35371162	
          0.67000000	          0.14441457	         -2.48695715	         -0.35845185	
          0.68000000	          0.12082076	         -2.50542351	         -0.36441458	
          0.69000000	          0.11663636	         -2.50968331	         -0.37046151	
          0.70000000	          0.11316320	         -2.51639605	         -0.37544035	
          0.71000000	          0.08796852	         -2.54541027	         -0.37484232	
          0.72000000	          0.04729983	         -2.58263217	         -0.37419057	
          0.73000000	          0.00470393	         -2.62130197	         -0.37674611	
          0.74000000	         -0.03371948	         -2.65993991	         -0.38322567	
          0.75000000	         -0.06865127	         -2.70131837	         -0.39112930	
          0.76000000	         -0.10075882	         -2.74567512	         -0.40032811	
          0.77000000	         -0.13139377	         -2.79169478	         -0.41077729	
          0.78000000	         -0.16056626	         -2.84071976	         -0.42234199	
          0.79000000	         -0.18821380	         -2.89213226	         -0.43526073	
          0.80000000	         -0.21460729	         -2.94545202	         -0.44961611	
          0.81000000	         -0.23971860	         -3.00010583	         -0.46551467	
          0.82000000	         -0.26369700	         -3.05515891	         -0.48310506	
          0.83000000	         -0.28665696	         -3.10976888	         -0.50247926	
          0.84000000	         -0.30877308	         -3.16304789	         -0.52373466	
          0.85000000	         -0.33025897	         -3.21419444	         -0.54695168	
          0.86000000	         -0.35137247	         -3.26251061	         -0.57220725	
          0.87000000	         -0.37241568	         -3.30743082	         -0.59957549	
          0.88000000	         -0.39372514	         -3.34854959	         -0.62913013	
          0.89000000	         -0.41564472	         -3.38564136	         -0.66094385	
          0.90000000	         -0.43848461	         -3.41866103	         -0.69508401	
          0.91000000	         -0.46247707	         -3.44770592	         -0.73160442	
          0.92000000	         -0.48774078	         -3.47294015	         -0.77053568	
          0.93000000	         -0.51426209	         -3.49449800	         -0.81187822	
          0.94000000	         -0.54189541	         -3.51239226	         -0.85560080	
          0.95000000	         -0.57037825	         -3.52646206	         -0.90164538	
          0.96000000	         -0.59935446	         -3.53638228	         -0.94993640	
          0.97000000	         -0.62839946	         -3.54173109	         -1.00039077	
          0.98000000	         -0.65704600	         -3.54208836	         -1.05292424	
          0.99000000	         -0.68481206	         -3.53713756	         -1.10745196	
          1.00000000	         -0.71123034	         -3.52675556	         -1.16388297	
          1.01000000	         -0.73587472	         -3.51107753	         -1.22210858	
          1.02000000	         -0.75837770	         -3.49052933	         -1.28198547	
          1.03000000	         -0.77843673	         -3.46582474	         -1.34331582	
          1.04000000	         -0.79581240	         -3.43793294	         -1.40582888	
          1.05000000	         -0.81032476	         -3.40802634	         -1.46916851	
          1.06000000	         -0.82185479	         -3.37741997	         -1.53289028	
          1.07000000	         -0.83035652	         -3.34751208	         -1.59646983	
          1.08000000	         -0.83588008	         -3.31973098	         -1.65932248	
          1.09000000	         -0.83859842	         -3.29548784	         -1.72083171	
          1.10000000	         -0.83882516	         -3.27613260	         -1.78038271	
          1.11000000	         -0.83701399	         -3.26291181	         -1.83739676	
          1.12000000	         -0.83374040	         -3.25693041	         -1.89136290	
          1.13000000	         -0.82967420	         -3.25911788	         -1.94186406	
          1.14000000	         -0.82555132	         -3.27019537	         -1.98859607	
          1.15000000	         -0.82214803	         -3.29063815	         -2.03137868	
          1.16000000	         -0.82025681	         -3.32062885	         -2.07015854	
          1.17000000	         -0.82066135	         -3.36000099	         -2.10500462	
          1.18000000	         -0.82411030	         -3.40817543	         -2.13609673	
          1.19000000	         -0.83129061	         -3.46409609	         -2.16370808	
          1.20000000	         -0.84280108	         -3.52617416	         -2.18818347	
          1.21000000	         -0.85912687	         -3.59225413	         -2.20991526	
          1.22000000	         -0.88061673	         -3.65961653	         -2.22932014	
          1.23000000	         -0.90746658	         -3.72503132	         -2.24682001	
          1.24000000	         -0.93971258	         -3.78486960	         -2.26282760	
          1.25000000	         -0.97722992	         -3.83527597	         -2.27773642	
          1.26000000	         -1.01971630	         -3.87240120	         -2.29190933	
          1.27000000	         -1.06668143	         -3.89268335	         -2.30567085	
          1.28000000	         -1.11744758	         -3.89315118	         -2.31930068	
          1.29000000	         -1.17114785	         -3.87170533	         -2.33301826	
          1.30000000	         -1.22674524	         -3.82730873	         -2.34696397	
          1.31000000	         -1.28307250	         -3.76003470	         -2.36118170	
          1.32000000	         -1.33887488	         -3.67097902	         -2.37560674	
          1.33000000	         -1.39284431	         -3.56208764	         -2.39006563	
          1.34000000	         -1.44364137	         -3.43594975	         -2.40428750	
          1.35000000	         -1.48990506	         -3.29558357	         -2.41791888	
          1.36000000	         -1.53025535	         -3.14422839	         -2.43053420	
          1.37000000	         -1.56329778	         -2.98516492	         -2.44163958	
          1.38000000	         -1.58763762	         -2.82154184	         -2.45067367	
          1.39000000	         -1.60191145	         -2.65634707	         -2.45701105	
          1.40000000	         -1.60484348	         -2.49209857	         -2.46000816	
          1.41000000	         -1.59537311	         -2.33219208	         -2.45913680	
          1.42000000	         -1.57299925	         -2.17738078	         -2.45418135	
          1.43000000	         -1.53969321	         -2.04195362	         -2.44349096	
          1.44000000	         -1.50292405	         -1.88839655	         -2.41919550	
          1.45000000	         -1.46090047	         -1.73452792	         -2.42479348	
          1.46000000	         -1.45862394	         -1.62672239	         -2.42772970	
          1.47000000	         -1.47573216	         -1.48063264	         -2.42304669	
          1.48000000	         -1.49668798	         -1.34049465	         -2.41294542	
          1.49000000	         -1.51060497	         -1.19948697	         -2.39699703	
          1.50000000	         -1.51400503	         -1.06167714	         -2.37458301	
          1.51000000	         -1.50584940	         -0.92786240	         -2.34523898	
          1.52000000	         -1.48648987	         -0.79879013	         -2.30881862	
          1.53000000	         -1.45735008	         -0.68117216	         -2.26432122	
          1.54000000	         -1.42286494	         -0.56099162	         -2.20697632	
          1.55000000	         -1.37666443	         -0.43543801	         -2.15888829	
